<svg xmlns="http://www.w3.org/2000/svg" style="display:none"><defs><style>symbol{overflow:visible}.icon-style{fill:none;stroke:currentColor;stroke-width:2;stroke-linecap:round;stroke-linejoin:round}.icon-fill{fill:currentColor;stroke:none}</style><symbol id="search" viewBox="0 0 24 24"><g class="icon-style"><circle cx="11" cy="11" r="8"/><line x1="21" x2="16.65" y1="21" y2="16.65"/></g></symbol><symbol id="book-open" viewBox="0 0 24 24"><g class="icon-style"><path d="M2 3h6a4 4 0 0 1 4 4v14a3 3 0 0 0-3-3H2z"/><path d="M22 3h-6a4 4 0 0 0-4 4v14a3 3 0 0 1 3-3h7z"/></g></symbol><symbol id="bookmark" viewBox="0 0 24 24"><g class="icon-style"><path d="M19 21l-7-5-7 5V5a2 2 0 0 1 2-2h10a2 2 0 0 1 2 2z"/></g></symbol><symbol id="bookmark-fill" viewBox="0 0 24 24"><path d="M19 21l-7-5-7 5V5a2 2 0 0 1 2-2h10a2 2 0 0 1 2 2z" class="icon-fill"/></symbol><symbol id="plus-circle" viewBox="0 0 24 24"><g class="icon-style"><circle cx="12" cy="12" r="10"/><line x1="12" x2="12" y1="8" y2="16"/><line x1="8" x2="16" y1="12" y2="12"/></g></symbol><symbol id="upload-cloud" viewBox="0 0 24 24"><g class="icon-style"><polyline points="16 16 12 12 8 16"/><line x1="12" x2="12" y1="12" y2="21"/><path d="M20.39 18.39A5 5 0 0 0 18 9h-1.26A8 8 0 1 0 3 16.3"/></g></symbol><symbol id="arrow-left" viewBox="0 0 24 24"><g class="icon-style"><line x1="19" x2="5" y1="12" y2="12"/><polyline points="12 19 5 12 12 5"/></g></symbol><symbol id="arrow-right" viewBox="0 0 24 24"><g class="icon-style"><line x1="5" x2="19" y1="12" y2="12"/><polyline points="12 5 19 12 12 19"/></g></symbol><symbol id="user" viewBox="0 0 24 24"><g class="icon-style"><path d="M20 21v-2a4 4 0 0 0-4-4H8a4 4 0 0 0-4 4v2"/><circle cx="12" cy="7" r="4"/></g></symbol><symbol id="x" viewBox="0 0 24 24"><g class="icon-style"><line x1="18" x2="6" y1="6" y2="18"/><line x1="6" x2="18" y1="6" y2="18"/></g></symbol><symbol id="loader" viewBox="0 0 24 24"><g class="icon-style"><path d="M21 12a9 9 0 1 1-6.219-8.56"/></g></symbol><symbol id="alert-triangle" viewBox="0 0 24 24"><g class="icon-style"><path d="M10.29 3.86L1.82 18a2 2 0 0 0 1.71 3h16.94a2 2 0 0 0 1.71-3L13.71 3.86a2 2 0 0 0-3.42 0z"/><line x1="12" x2="12" y1="9" y2="13"/><line x1="12" x2="12.01" y1="17" y2="17"/></g></symbol><symbol id="check" viewBox="0 0 24 24"><g class="icon-style"><polyline points="20 6 9 17 4 12"/></g></symbol><symbol id="star" viewBox="0 0 24 24"><g class="icon-style"><polygon points="12 2 15.09 8.26 22 9.27 17 14.14 18.18 21.02 12 17.77 5.82 21.02 7 14.14 2 9.27 8.91 8.26 12 2"/></g></symbol><symbol id="star-fill" viewBox="0 0 24 24"><polygon points="12 2 15.09 8.26 22 9.27 17 14.14 18.18 21.02 12 17.77 5.82 21.02 7 14.14 2 9.27 8.91 8.26 12 2" class="icon-fill"/></symbol><symbol id="book" viewBox="0 0 24 24"><g class="icon-style"><path d="M4 19.5A2.5 2.5 0 0 1 6.5 17H20"/><path d="M6.5 2H20v20H6.5A2.5 2.5 0 0 1 4 19.5v-15A2.5 2.5 0 0 1 6.5 2z"/></g></symbol><symbol id="calendar" viewBox="0 0 24 24"><g class="icon-style"><rect width="18" height="18" x="3" y="4" rx="2" ry="2"/><line x1="16" x2="16" y1="2" y2="6"/><line x1="8" x2="8" y1="2" y2="6"/><line x1="3" x2="21" y1="10" y2="10"/></g></symbol><symbol id="globe" viewBox="0 0 24 24"><g class="icon-style"><circle cx="12" cy="12" r="10"/><line x1="2" x2="22" y1="12" y2="12"/><path d="M12 2a15.3 15.3 0 0 1 4 10 15.3 15.3 0 0 1-4 10 15.3 15.3 0 0 1-4-10 15.3 15.3 0 0 1 4-10z"/></g></symbol><symbol id="file-text" viewBox="0 0 24 24"><g class="icon-style"><path d="M14 2H6a2 2 0 0 0-2 2v16a2 2 0 0 0 2 2h12a2 2 0 0 0 2-2V8z"/><polyline points="14 2 14 8 20 8"/><line x1="16" x2="8" y1="13" y2="13"/><line x1="16" x2="8" y1="17" y2="17"/><polyline points="10 9 9 9 8 9"/></g></symbol><symbol id="eye" viewBox="0 0 24 24"><g class="icon-style"><path d="M1 12s4-8 11-8 11 8 11 8-4 8-11 8-11-8-11-8z"/><circle cx="12" cy="12" r="3"/></g></symbol><symbol id="download" viewBox="0 0 24 24"><g class="icon-style"><path d="M21 15v4a2 2 0 0 1-2 2H5a2 2 0 0 1-2-2v-4"/><polyline points="7 10 12 15 17 10"/><line x1="12" x2="12" y1="15" y2="3"/></g></symbol><symbol id="edit" viewBox="0 0 24 24"><g class="icon-style"><path d="M11 4H4a2 2 0 0 0-2 2v14a2 2 0 0 0 2 2h14a2 2 0 0 0 2-2v-7"/><path d="M18.5 2.5a2.121 2.121 0 0 1 3 3L12 15l-4 1 1-4 9.5-9.5z"/></g></symbol></defs></svg>