<svg xmlns="http://www.w3.org/2000/svg" style="display: none;">
  <defs>
    <style>
      symbol { overflow: visible; }
      .icon-style {
        fill: none;
        stroke: currentColor;
        stroke-width: 2;
        stroke-linecap: round;
        stroke-linejoin: round;
      }
      .icon-fill {
        fill: currentColor;
        stroke: none;
      }
    </style>

    <symbol id="search" viewBox="0 0 24 24">
      <g class="icon-style">
        <circle cx="11" cy="11" r="8"></circle>
        <line x1="21" y1="21" x2="16.65" y2="16.65"></line>
      </g>
    </symbol>

    <symbol id="book-open" viewBox="0 0 24 24">
      <g class="icon-style">
        <path d="M2 3h6a4 4 0 0 1 4 4v14a3 3 0 0 0-3-3H2z"></path>
        <path d="M22 3h-6a4 4 0 0 0-4 4v14a3 3 0 0 1 3-3h7z"></path>
      </g>
    </symbol>

    <symbol id="bookmark" viewBox="0 0 24 24">
      <g class="icon-style">
        <path d="M19 21l-7-5-7 5V5a2 2 0 0 1 2-2h10a2 2 0 0 1 2 2z"></path>
      </g>
    </symbol>

    <symbol id="bookmark-fill" viewBox="0 0 24 24">
      <path class="icon-fill" d="M19 21l-7-5-7 5V5a2 2 0 0 1 2-2h10a2 2 0 0 1 2 2z"></path>
    </symbol>

    <symbol id="plus-circle" viewBox="0 0 24 24">
      <g class="icon-style">
        <circle cx="12" cy="12" r="10"></circle>
        <line x1="12" y1="8" x2="12" y2="16"></line>
        <line x1="8" y1="12" x2="16" y2="12"></line>
      </g>
    </symbol>

    <symbol id="upload-cloud" viewBox="0 0 24 24">
      <g class="icon-style">
        <polyline points="16 16 12 12 8 16"></polyline>
        <line x1="12" y1="12" x2="12" y2="21"></line>
        <path d="M20.39 18.39A5 5 0 0 0 18 9h-1.26A8 8 0 1 0 3 16.3"></path>
      </g>
    </symbol>

    <symbol id="arrow-left" viewBox="0 0 24 24">
      <g class="icon-style">
        <line x1="19" y1="12" x2="5" y2="12"></line>
        <polyline points="12 19 5 12 12 5"></polyline>
      </g>
    </symbol>

    <symbol id="arrow-right" viewBox="0 0 24 24">
      <g class="icon-style">
        <line x1="5" y1="12" x2="19" y2="12"></line>
        <polyline points="12 5 19 12 12 19"></polyline>
      </g>
    </symbol>

    <symbol id="user" viewBox="0 0 24 24">
      <g class="icon-style">
        <path d="M20 21v-2a4 4 0 0 0-4-4H8a4 4 0 0 0-4 4v2"></path>
        <circle cx="12" cy="7" r="4"></circle>
      </g>
    </symbol>

    <symbol id="x" viewBox="0 0 24 24">
      <g class="icon-style">
        <line x1="18" y1="6" x2="6" y2="18"></line>
        <line x1="6" y1="6" x2="18" y2="18"></line>
      </g>
    </symbol>

    <symbol id="loader" viewBox="0 0 24 24">
      <g class="icon-style">
        <path d="M21 12a9 9 0 1 1-6.219-8.56"></path>
      </g>
    </symbol>

    <symbol id="alert-triangle" viewBox="0 0 24 24">
      <g class="icon-style">
        <path d="M10.29 3.86L1.82 18a2 2 0 0 0 1.71 3h16.94a2 2 0 0 0 1.71-3L13.71 3.86a2 2 0 0 0-3.42 0z"></path>
        <line x1="12" y1="9" x2="12" y2="13"></line>
        <line x1="12" y1="17" x2="12.01" y2="17"></line>
      </g>
    </symbol>

    <symbol id="check" viewBox="0 0 24 24">
      <g class="icon-style">
        <polyline points="20 6 9 17 4 12"></polyline>
      </g>
    </symbol>

    <symbol id="star" viewBox="0 0 24 24">
      <g class="icon-style">
        <polygon points="12 2 15.09 8.26 22 9.27 17 14.14 18.18 21.02 12 17.77 5.82 21.02 7 14.14 2 9.27 8.91 8.26 12 2"></polygon>
      </g>
    </symbol>

    <symbol id="star-fill" viewBox="0 0 24 24">
      <polygon class="icon-fill" points="12 2 15.09 8.26 22 9.27 17 14.14 18.18 21.02 12 17.77 5.82 21.02 7 14.14 2 9.27 8.91 8.26 12 2"></polygon>
    </symbol>

    <symbol id="book" viewBox="0 0 24 24">
      <g class="icon-style">
        <path d="M4 19.5A2.5 2.5 0 0 1 6.5 17H20"></path>
        <path d="M6.5 2H20v20H6.5A2.5 2.5 0 0 1 4 19.5v-15A2.5 2.5 0 0 1 6.5 2z"></path>
      </g>
    </symbol>

    <symbol id="calendar" viewBox="0 0 24 24">
      <g class="icon-style">
        <rect x="3" y="4" width="18" height="18" rx="2" ry="2"></rect>
        <line x1="16" y1="2" x2="16" y2="6"></line>
        <line x1="8" y1="2" x2="8" y2="6"></line>
        <line x1="3" y1="10" x2="21" y2="10"></line>
      </g>
    </symbol>

    <symbol id="globe" viewBox="0 0 24 24">
      <g class="icon-style">
        <circle cx="12" cy="12" r="10"></circle>
        <line x1="2" y1="12" x2="22" y2="12"></line>
        <path d="M12 2a15.3 15.3 0 0 1 4 10 15.3 15.3 0 0 1-4 10 15.3 15.3 0 0 1-4-10 15.3 15.3 0 0 1 4-10z"></path>
      </g>
    </symbol>

    <symbol id="file-text" viewBox="0 0 24 24">
      <g class="icon-style">
        <path d="M14 2H6a2 2 0 0 0-2 2v16a2 2 0 0 0 2 2h12a2 2 0 0 0 2-2V8z"></path>
        <polyline points="14 2 14 8 20 8"></polyline>
        <line x1="16" y1="13" x2="8" y2="13"></line>
        <line x1="16" y1="17" x2="8" y2="17"></line>
        <polyline points="10 9 9 9 8 9"></polyline>
      </g>
    </symbol>
  </defs>
</svg>
